PathFileType	4	(x/y/z)	S04_PSF_T13.trc
DataRate	CameraRate	NumFrames	NumMarkers	Units	OrigDataRate	OrigDataStartFrame	OrigNumFrames
240	240	8	51	mm	240	217	432
Frame#	Time	Sternum			R.Acromium			L.Acromium			Top.Head			R.ASIS			L.ASIS			R.PSIS			L.PSIS			R.Great.Tro			L.Great.Tro			R.Iliac.Crest			L.Iliac.Crest			V.Sacral			R.Thigh.Upper.Post			R.Thigh.Lower.Ant			R.Thigh.Lower.Post			R.Thigh.Upper.Ant			R.Knee.Lat			R.Knee.Med			R.Shank.Upper.Post			R.Shank.Lower.Ant			R.Shank.Lower.Post			R.Shank.Upper.Ant			R.Ankle.Lat			R.Ankle.Med			R.Heel.Upper			R.Heel.Med			R.Heel.Lat			R.Toe.Lat			R.Toe.Med			R.Toe.Tip			L.Thigh.Upper.Post			L.Thigh.Lower.Ant			L.Thigh.Lower.Post			L.Thigh.Upper.Ant			L.Knee.Lat			L.Knee.Med			L.Shank.Upper.Post			L.Shank.Lower.Ant			L.Shank.Lower.Post			L.Shank.Upper.Ant			L.Ankle.Lat			L.Ankle.Med			L.Heel.Upper			L.Heel.Med			L.Heel.Lat			L.Toe.Lat			L.Toe.Med			L.Toe.Tip			Cervical.Spine			Back			
		X1	Y1	Z1	X2	Y2	Z2	X3	Y3	Z3	X4	Y4	Z4	X5	Y5	Z5	X6	Y6	Z6	X7	Y7	Z7	X8	Y8	Z8	X9	Y9	Z9	X10	Y10	Z10	X11	Y11	Z11	X12	Y12	Z12	X13	Y13	Z13	X14	Y14	Z14	X15	Y15	Z15	X16	Y16	Z16	X17	Y17	Z17	X18	Y18	Z18	X19	Y19	Z19	X20	Y20	Z20	X21	Y21	Z21	X22	Y22	Z22	X23	Y23	Z23	X24	Y24	Z24	X25	Y25	Z25	X26	Y26	Z26	X27	Y27	Z27	X28	Y28	Z28	X29	Y29	Z29	X30	Y30	Z30	X31	Y31	Z31	X32	Y32	Z32	X33	Y33	Z33	X34	Y34	Z34	X35	Y35	Z35	X36	Y36	Z36	X37	Y37	Z37	X38	Y38	Z38	X39	Y39	Z39	X40	Y40	Z40	X41	Y41	Z41	X42	Y42	Z42	X43	Y43	Z43	X44	Y44	Z44	X45	Y45	Z45	X46	Y46	Z46	X47	Y47	Z47	X48	Y48	Z48	X49	Y49	Z49	X50	Y50	Z50	X51	Y51	Z51	

217	0.9	-388.62	1288.4	271.9	-505.22	1511.7	460	-536.5	1505.3	112.2	-475.03	1841.2	276.99	-416.43	1001.5	412.64	-417.76	1022	163.11	-628.56	1040	309.85	-620.07	1043.5	229.77	-508.25	920.85	470.55	-523.15	935.97	92.104	-500.06	1093.6	453.72	-519.97	1103.2	119.69	-646.36	1000.5	269.6	-510.03	662.11	444.81	-436.44	580.22	407.01	-511.25	572.44	427.3	-425.19	687.54	434.5	-487.76	504.08	411.79	-512.47	504.87	285.79	-571.65	281.55	398.54	-509.4	204.21	349.61	-575.36	212.79	377.97	-508.41	272.21	377.69	-567.46	100.98	350.15	-548.53	118.98	262.39	-635.73	74.887	293.88	-627.37	44.675	262.83	-629.1	41.667	327.84	-459.1	38.104	375.58	-423.07	42.405	255.78	-360.35	59.96	303.8	-448.58	701.4	87.738	-336.57	642.68	89.198	-406.74	622.2	97.506	-383.29	719.66	77.48	-348.35	547.35	101.7	-333.76	531.14	228.12	-497.09	424.66	111.44	-473.15	316.69	102.11	-525.4	352.18	115.69	-445.08	388.28	97.214	-564.11	189	120.15	-546.43	193.49	210.82	-640.85	191.15	170.84	-644.21	166.37	204.96	-651.3	165.36	143.44	-493.9	79.808	94.632	-453.37	74.184	205.82	-401.36	61.846	154.11	-567.65	1561.5	295.19	-647.84	1302.4	276.22
218	0.90417	-383.54	1288.2	271.98	-499.68	1511.6	460.09	-531.3	1505.2	112.32	-469.61	1841	276.81	-411.96	1001.2	413.03	-412.57	1022	163.46	-623.74	1039.9	309.53	-615.07	1043.4	229.47	-504.11	920.65	470.54	-517.64	935.99	92.022	-495.59	1093.4	453.82	-514.76	1103.1	119.71	-641.43	1000.4	269.21	-507.68	662.16	444.72	-434.6	579.72	407.12	-509.49	572.47	427.34	-422.64	686.98	434.53	-486.57	503.91	411.88	-511	504.82	285.8	-571.2	281.69	398.41	-509.04	204.17	349.61	-575.07	212.96	377.79	-507.92	272.14	377.72	-567.33	101.11	349.97	-548.35	119.04	262.17	-635.71	75.011	293.76	-627.36	44.701	262.74	-629.04	41.825	327.76	-459.08	38.091	375.57	-423.07	42.236	255.71	-360.28	59.709	303.78	-441.95	701.76	87.742	-329.62	643.63	89.667	-399.72	622.76	97.604	-376.74	720.37	77.817	-340.81	548.06	102.1	-326.41	532.14	228.47	-487.17	422.16	111.16	-460.88	314.69	102.31	-513.94	349.12	115.52	-434.35	386.82	97.325	-549.03	184.95	120.13	-531.83	190.01	210.87	-626.09	185.46	170.52	-628.98	160.68	204.69	-635.81	159.37	143.16	-476.24	77.309	95.113	-436	72.86	206.52	-383.59	61.544	155.01	-562.22	1561.5	295.34	-642.62	1302.4	276.41
219	0.90833	-378.45	1287.9	272.05	-494.15	1511.5	460.18	-526.08	1505	112.43	-464.18	1840.9	276.63	-407.46	1000.9	413.39	-407.4	1021.9	163.79	-618.91	1039.7	309.21	-610.07	1043.2	229.18	-499.94	920.43	470.53	-512.17	935.96	91.939	-491.06	1093.3	453.91	-509.57	1103	119.73	-636.49	1000.2	268.84	-505.3	662.2	444.62	-432.74	579.23	407.22	-507.7	572.51	427.38	-420.06	686.42	434.53	-485.37	503.73	411.97	-509.53	504.77	285.8	-570.73	281.83	398.28	-508.68	204.14	349.62	-574.78	213.13	377.62	-507.42	272.08	377.76	-567.19	101.24	349.78	-548.19	119.09	261.95	-635.68	75.133	293.64	-627.3	44.728	262.67	-628.98	41.986	327.69	-459.06	38.077	375.55	-423.07	42.071	255.64	-360.21	59.461	303.76	-435.44	702.03	87.787	-322.8	644.48	90.134	-392.83	623.24	97.734	-370.3	721	78.157	-333.4	548.69	102.5	-319.17	533.06	228.82	-477.25	419.6	110.91	-448.61	312.69	102.53	-502.47	346.02	115.38	-423.64	385.33	97.445	-533.85	180.93	120.12	-517.13	186.54	210.93	-611.19	179.78	170.23	-613.61	155.01	204.44	-620.17	153.41	142.91	-458.51	74.91	95.597	-418.57	71.621	207.21	-365.8	61.356	155.91	-556.79	1561.4	295.47	-637.39	1302.3	276.57
220	0.9125	-373.37	1287.6	272.12	-488.61	1511.4	460.26	-520.84	1504.9	112.52	-458.75	1840.6	276.45	-402.94	1000.5	413.73	-402.23	1021.7	164.09	-614.07	1039.5	308.91	-605.07	1043	228.9	-495.75	920.2	470.52	-506.75	935.87	91.855	-486.48	1093	453.99	-504.38	1102.8	119.73	-631.54	1000	268.48	-502.88	662.24	444.53	-430.85	578.73	407.31	-505.88	572.55	427.42	-417.46	685.85	434.5	-484.14	503.56	412.05	-508.06	504.72	285.81	-570.26	281.98	398.15	-508.32	204.1	349.63	-574.47	213.31	377.46	-506.92	272.02	377.81	-567.05	101.37	349.61	-548.03	119.14	261.74	-635.63	75.254	293.52	-627.21	44.757	262.6	-628.92	42.148	327.61	-459.04	38.062	375.53	-423.07	41.91	255.58	-360.14	59.217	303.74	-429.05	702.22	87.874	-316.13	645.23	90.598	-386.08	623.64	97.896	-363.98	721.53	78.498	-326.1	549.24	102.91	-312.02	533.9	229.17	-467.35	416.97	110.69	-436.34	310.69	102.75	-490.98	342.88	115.27	-412.97	383.82	97.575	-518.57	176.95	120.12	-502.33	183.09	211.01	-596.16	174.12	169.97	-598.1	149.36	204.21	-604.38	147.5	142.68	-440.71	72.621	96.087	-401.11	70.476	207.9	-347.98	61.291	156.79	-551.36	1561.3	295.59	-632.17	1302.3	276.72
221	0.91667	-368.28	1287.3	272.18	-483.08	1511.2	460.33	-515.58	1504.6	112.61	-453.31	1840.4	276.26	-398.39	1000.1	414.04	-397.08	1021.5	164.36	-609.22	1039.3	308.62	-600.07	1042.8	228.64	-491.52	919.94	470.51	-501.37	935.72	91.77	-481.84	1092.8	454.05	-499.2	1102.6	119.72	-626.59	999.81	268.14	-500.43	662.27	444.43	-428.93	578.24	407.39	-504.01	572.58	427.46	-414.83	685.29	434.45	-482.89	503.39	412.13	-506.59	504.67	285.83	-569.78	282.13	398.02	-507.95	204.08	349.64	-574.16	213.5	377.3	-506.41	271.97	377.85	-566.91	101.5	349.44	-547.88	119.19	261.54	-635.56	75.372	293.41	-627.08	44.789	262.55	-628.86	42.312	327.54	-459.02	38.044	375.51	-423.09	41.755	255.52	-360.07	58.979	303.73	-422.79	702.33	88	-309.6	645.87	91.056	-379.46	623.94	98.091	-357.77	721.97	78.837	-318.93	549.71	103.32	-304.97	534.66	229.53	-457.47	414.28	110.51	-424.09	308.69	102.97	-479.47	339.71	115.19	-402.33	382.29	97.714	-503.2	173.04	120.13	-487.43	179.67	211.09	-581	168.51	169.73	-582.43	143.76	204	-588.44	141.63	142.48	-422.84	70.454	96.584	-383.61	69.434	208.59	-330.14	61.359	157.67	-545.91	1561.1	295.7	-626.95	1302.1	276.86
222	0.92083	-363.18	1286.9	272.24	-477.54	1511	460.39	-510.3	1504.4	112.69	-447.86	1840.1	276.06	-393.81	999.72	414.33	-391.94	1021.2	164.61	-604.36	1039.1	308.34	-595.08	1042.5	228.39	-487.26	919.67	470.49	-496.03	935.52	91.685	-477.16	1092.5	454.11	-494.03	1102.4	119.71	-621.64	999.55	267.82	-497.95	662.29	444.34	-426.97	577.75	407.46	-502.12	572.6	427.5	-412.17	684.72	434.38	-481.61	503.22	412.21	-505.12	504.62	285.85	-569.28	282.29	397.9	-507.57	204.05	349.67	-573.84	213.69	377.15	-505.89	271.92	377.91	-566.77	101.63	349.27	-547.73	119.23	261.35	-635.48	75.489	293.31	-626.92	44.824	262.5	-628.8	42.477	327.47	-459	38.024	375.48	-423.1	41.606	255.46	-359.99	58.746	303.73	-416.65	702.36	88.165	-303.2	646.41	91.509	-372.98	624.16	98.318	-351.68	722.31	79.171	-311.88	550.1	103.73	-298.03	535.34	229.89	-447.6	411.55	110.36	-411.85	306.71	103.2	-467.96	336.53	115.13	-391.73	380.74	97.863	-487.74	169.19	120.16	-472.44	176.29	211.19	-565.71	162.95	169.51	-566.62	138.2	203.8	-572.35	135.83	142.29	-404.92	68.419	97.089	-366.08	68.505	209.28	-312.29	61.572	158.54	-540.46	1560.9	295.8	-621.72	1302	276.99
223	0.925	-358.08	1286.5	272.28	-472.01	1510.8	460.44	-505	1504.1	112.75	-442.41	1839.7	275.87	-389.2	999.27	414.59	-386.81	1020.9	164.82	-599.48	1038.8	308.07	-590.08	1042.2	228.15	-482.96	919.38	470.48	-490.73	935.26	91.6	-472.45	1092.2	454.16	-488.87	1102.1	119.68	-616.67	999.25	267.51	-495.43	662.31	444.26	-424.99	577.26	407.53	-500.18	572.63	427.54	-409.49	684.15	434.29	-480.3	503.04	412.29	-503.64	504.57	285.87	-568.77	282.46	397.78	-507.19	204.03	349.7	-573.51	213.89	377	-505.36	271.87	377.97	-566.62	101.76	349.11	-547.58	119.26	261.18	-635.38	75.603	293.21	-626.73	44.865	262.47	-628.74	42.643	327.4	-458.97	38	375.46	-423.11	41.463	255.4	-359.92	58.519	303.74	-410.63	702.31	88.368	-296.94	646.83	91.953	-366.63	624.29	98.576	-345.7	722.56	79.497	-304.96	550.4	104.14	-291.19	535.93	230.26	-437.75	408.76	110.25	-399.63	304.76	103.43	-456.43	333.33	115.1	-381.17	379.19	98.022	-472.19	165.42	120.21	-457.36	172.97	211.3	-550.3	157.46	169.31	-550.67	132.71	203.61	-556.11	130.11	142.12	-386.94	66.527	97.602	-348.53	67.701	209.97	-294.43	61.937	159.41	-535.01	1560.7	295.89	-616.5	1301.8	277.1
224	0.92917	-352.96	1286	272.32	-466.48	1510.5	460.48	-499.69	1503.7	112.8	-436.95	1839.4	275.67	-384.55	998.79	414.82	-381.68	1020.6	165.01	-594.59	1038.5	307.82	-585.08	1041.9	227.92	-478.64	919.08	470.46	-485.47	934.96	91.518	-467.7	1091.8	454.2	-483.72	1101.7	119.65	-611.69	998.94	267.22	-492.87	662.31	444.18	-422.97	576.77	407.58	-498.2	572.65	427.59	-406.78	683.58	434.19	-478.96	502.87	412.37	-502.15	504.52	285.91	-568.24	282.63	397.67	-506.8	204.01	349.74	-573.16	214.09	376.86	-504.82	271.83	378.04	-566.47	101.88	348.97	-547.43	119.28	261.02	-635.26	75.715	293.11	-626.51	44.911	262.46	-628.68	42.809	327.33	-458.95	37.972	375.43	-423.12	41.326	255.35	-359.84	58.299	303.75	-404.73	702.18	88.606	-290.82	647.15	92.389	-360.42	624.33	98.866	-339.83	722.7	79.815	-298.17	550.63	104.55	-284.45	536.45	230.63	-427.92	405.94	110.18	-387.43	302.83	103.66	-444.89	330.12	115.1	-370.66	377.63	98.19	-456.56	161.74	120.26	-442.2	169.71	211.43	-534.75	152.04	169.12	-534.57	127.3	203.44	-539.73	124.47	141.96	-368.92	64.789	98.125	-330.96	67.033	210.66	-276.57	62.467	160.29	-529.55	1560.4	295.96	-611.28	1301.6	277.2
